<?xml version="1.0" encoding="UTF-8"?>
<svg xmlns="http://www.w3.org/2000/svg" xmlns:xlink="http://www.w3.org/1999/xlink" viewBox="0 0 128 128" width="128px" height="128px">
<g id="surface167552518">
<path style=" stroke:none;fill-rule:nonzero;fill:rgb(0%,0%,0%);fill-opacity:1;" d="M 56.597656 21.597656 C 34.097656 21.597656 15.800781 40.101562 15.800781 62.800781 C 15.800781 85.601562 34.097656 104 56.597656 104 C 66.898438 104 76.300781 100.097656 83.5 93.699219 L 85.800781 96 L 83.699219 98.199219 C 82.5 99.398438 82.5 101.300781 83.699219 102.5 L 101.699219 120.699219 C 102.300781 121.300781 103 121.597656 103.800781 121.597656 C 104.601562 121.597656 105.398438 121.300781 105.898438 120.699219 L 113.898438 112.597656 C 115 111.398438 115 109.5 113.800781 108.398438 L 95.800781 90.199219 C 95.199219 89.597656 94.5 89.300781 93.699219 89.300781 C 92.898438 89.300781 92.097656 89.597656 91.597656 90.199219 L 89.5 92.398438 L 87.199219 90 C 93.5 82.699219 97.398438 73.199219 97.398438 62.800781 C 97.398438 40.101562 79.097656 21.597656 56.597656 21.597656 Z M 56.597656 27.699219 C 75.800781 27.699219 91.398438 43.5 91.398438 62.902344 C 91.398438 82.300781 75.800781 98 56.597656 98 C 37.398438 98 21.800781 82.300781 21.800781 62.902344 C 21.800781 43.5 37.398438 27.699219 56.597656 27.699219 Z M 56.699219 40.199219 C 47.199219 40.199219 38.699219 46.300781 35.5 55.300781 C 35 56.601562 35.699219 58.199219 37.097656 58.597656 C 37.398438 58.699219 37.699219 58.800781 38 58.800781 C 39.101562 58.800781 40.101562 58.101562 40.5 57 C 42.898438 50.101562 49.5 45.398438 56.699219 45.398438 C 58.097656 45.398438 59.300781 44.199219 59.300781 42.800781 C 59.300781 41.402344 58.097656 40.199219 56.699219 40.199219 Z M 37.699219 64.902344 C 36.300781 64.902344 35.097656 66 35.097656 67.5 L 35.097656 67.902344 C 35.199219 69.300781 36.300781 70.5 37.800781 70.5 C 39.199219 70.5 40.402344 69.300781 40.402344 67.902344 L 40.402344 67.597656 C 40.402344 66.097656 39.300781 64.902344 37.800781 64.902344 Z M 93.800781 96.597656 L 107.601562 110.597656 L 103.800781 114.398438 L 90 100.398438 Z M 93.800781 96.597656 "/>
</g>
</svg>
